<svg xmlns="http://www.w3.org/2000/svg" width="273.045" height="245.347" version="1.0"><path d="M28.163 58.269q3.109 0 5.572 1.642 2.464 1.584 3.696 4.399l29.327 66.397q1.056 2.17 3.637 2.17h19.532q2.053 0 3.52 1.408 1.466 1.408 1.466 3.402 0 1.936-1.467 3.344-1.466 1.407-3.519 1.407H67.873q-3.344 0-5.573-1.407-2.228-1.467-3.636-4.634L29.219 70q-.528-1.115-1.408-1.643-.82-.528-1.994-.528H6.227q-2.112 0-3.579-1.349-1.407-1.408-1.407-3.46 0-1.995 1.407-3.344 1.467-1.407 3.578-1.407zm61.764 0q2.112 0 3.52 1.349t1.407 3.343q0 2.053-1.408 3.402t-3.519 1.349H61.479q-2.111 0-3.519-1.35-1.408-1.348-1.408-3.401 0-1.994 1.408-3.343 1.408-1.35 3.52-1.35z" aria-label="⌥" style="fill:#000;fill-opacity:1;fill-rule:nonzero;stroke:none" transform="translate(-3.617 -169.845)scale(2.9149)"/></svg>
