<svg xmlns="http://www.w3.org/2000/svg" width="442.031" height="136.033" viewBox="0 0 116.954 35.992"><path d="M0 21.134q0-.869.471-1.34.472-.496 1.29-.496.496 0 .918.323.446.297 1.067 1.116 1.165 1.438 2.728 2.158 1.588.694 3.622.694 1.736 0 3-.496 1.266-.496 1.96-1.414.695-.917.695-2.158 0-.942-.447-1.711-.421-.794-1.24-1.34-.818-.545-1.96-.818l-5.084-1.19q-3.349-.795-5.01-2.506Q.371 10.244.371 7.54q0-2.307 1.141-3.994Q2.68 1.86 4.763.943 6.87 0 9.722 0q1.96 0 3.721.496 1.761.471 3.126 1.414 1.14.794 1.785 1.786.67.992.67 1.935 0 .769-.471 1.24-.447.446-1.24.446-.546 0-.968-.248-.397-.273-1.14-1.116-1.29-1.463-2.58-2.059-1.29-.62-3.051-.62-2.48 0-3.92 1.067-1.438 1.066-1.438 2.927 0 1.463.967 2.406.968.918 2.952 1.414l4.862 1.166q2.257.545 3.72 1.488 1.464.918 2.158 2.282.72 1.34.72 3.175 0 2.356-1.19 4.093-1.167 1.711-3.35 2.654-2.158.917-5.159.917-1.96 0-3.77-.446t-3.25-1.265q-1.364-.794-2.133-1.836Q0 22.25 0 21.134m41.002.992q-.397 1.042-1.315 2.158-.892 1.091-2.53 1.835-1.612.744-4.192.744-2.38 0-4.34-.818-1.96-.819-3.15-2.63-1.166-1.81-1.166-4.811V2.232q0-1.116.57-1.587.57-.496 1.39-.496.818 0 1.388.496.57.471.57 1.587v15.38q0 2.207.794 3.472.819 1.265 2.109 1.786 1.315.52 2.828.52 2.182 0 3.795-.843 1.637-.868 2.555-2.306.917-1.439.917-3.126V2.232q0-1.116.57-1.587.571-.496 1.39-.496t1.389.496q.57.471.57 1.587v22.374q0 1.116-.57 1.613-.57.47-1.389.47t-1.39-.495q-.57-.496-.57-1.588v-2.48zm14.66-6.003q0 2.133.893 3.795.917 1.637 2.53 2.555t3.72.918q2.183 0 3.696-.992 1.538-1.017 2.332-2.903.819-1.91.819-4.613V11.98q0-2.729-.819-4.614-.794-1.91-2.356-2.902-1.563-.992-3.796-.992-2.158 0-3.745.942-1.563.918-2.43 2.68-.844 1.735-.844 4.166zm0 17.686q0 2.183-1.96 2.183-1.935 0-1.935-2.183V2.356q0-2.182 1.836-2.182 1.86 0 1.86 2.182V4.54h.199q.397-1.042 1.14-1.885.745-.843 1.762-1.439Q59.606.62 60.846.322 62.11 0 63.525 0q3.076 0 5.308 1.364 2.257 1.34 3.473 3.82 1.24 2.48 1.24 5.854v4.763q0 3.398-1.24 5.878t-3.547 3.845q-2.282 1.34-5.408 1.34-1.786 0-3.274-.497-1.464-.496-2.53-1.438-1.067-.943-1.687-2.307h-.198ZM78.01 15.577v-4.241q0-3.349 1.364-5.904T83.17 1.44 88.751 0q3.076 0 5.408 1.39 2.356 1.388 3.695 3.844 1.34 2.43 1.34 5.63 0 2.109-.447 2.853-.421.72-1.736.72H81.955v1.413q0 3.498 1.96 5.532 1.959 2.009 5.382 2.009.843 0 1.587-.124.745-.124 1.414-.372.67-.273 1.265-.67.596-.397 1.141-.918 1.017-.967 1.39-1.215.396-.248.892-.248.67 0 1.117.496t.446 1.24q0 .521-.298 1.166-.297.62-.793 1.19-1.216 1.365-3.448 2.159-2.233.768-4.887.768-5.16 0-8.136-3.026t-2.976-8.26m3.944-4.49h13.32v-.074q0-3.472-1.761-5.531t-4.738-2.059q-3.051 0-4.936 2.108-1.885 2.084-1.885 5.482zm26.516 13.42q0 1.017-.521 1.612-.496.57-1.414.57t-1.439-.57q-.52-.595-.52-1.612V2.357q0-1.018.52-1.588.546-.595 1.464-.595.893 0 1.389.595.52.57.52 1.587v1.067h.1q.695-1.166 1.588-1.91.893-.769 1.96-1.14Q113.183 0 114.35 0q1.116 0 1.76.397.844.471.844 1.463 0 .546-.223.918-.199.372-.62.595-.323.174-.77.248-.446.075-1.016.075-1.91 0-3.225.72-1.314.694-1.984 2.108-.645 1.414-.645 3.572z" aria-label="super" style="font-size:50.8px;font-family:&quot;.SF Compact Rounded&quot;;-inkscape-font-specification:&quot;.SF Compact Rounded&quot;;stroke-width:.264583"/></svg>
